<?xml version="1.0" encoding="utf-8" standalone="no"?>
<!DOCTYPE svg PUBLIC "-//W3C//DTD SVG 1.1//EN"
  "http://www.w3.org/Graphics/SVG/1.1/DTD/svg11.dtd">
<svg xmlns:xlink="http://www.w3.org/1999/xlink" width="720pt" height="720pt" viewBox="0 0 720 720" xmlns="http://www.w3.org/2000/svg" version="1.1">
 <metadata>
  <rdf:RDF xmlns:dc="http://purl.org/dc/elements/1.1/" xmlns:cc="http://creativecommons.org/ns#" xmlns:rdf="http://www.w3.org/1999/02/22-rdf-syntax-ns#">
   <cc:Work>
    <dc:type rdf:resource="http://purl.org/dc/dcmitype/StillImage"/>
    <dc:date>2022-11-24T15:47:12.919327</dc:date>
    <dc:format>image/svg+xml</dc:format>
    <dc:creator>
     <cc:Agent>
      <dc:title>Matplotlib v3.5.0, https://matplotlib.org/</dc:title>
     </cc:Agent>
    </dc:creator>
   </cc:Work>
  </rdf:RDF>
 </metadata>
 <defs>
  <style type="text/css">*{stroke-linejoin: round; stroke-linecap: butt}</style>
 </defs>
 <g id="figure_1">
  <g id="patch_1">
   <path d="M 0 720 
L 720 720 
L 720 0 
L 0 0 
L 0 720 
z
" style="fill: none"/>
  </g>
  <g id="axes_1">
   <g id="LineCollection_1">
    <path d="M 144.01875 251.33 
L 137.455086 251.33 
L 137.455086 331.44 
L 144.01875 331.44 
" clip-path="url(#p8e6e508c8d)" style="fill: none; stroke: #333333; stroke-width: 0.5"/>
    <path d="M 144.01875 171.22 
L 126.709386 171.22 
L 126.709386 291.385 
L 137.455086 291.385 
" clip-path="url(#p8e6e508c8d)" style="fill: none; stroke: #333333; stroke-width: 0.5"/>
    <path d="M 144.01875 491.66 
L 143.693696 491.66 
L 143.693696 571.77 
L 144.01875 571.77 
" clip-path="url(#p8e6e508c8d)" style="fill: none; stroke: #333333; stroke-width: 0.5"/>
    <path d="M 144.01875 411.55 
L 76.941056 411.55 
L 76.941056 531.715 
L 143.693696 531.715 
" clip-path="url(#p8e6e508c8d)" style="fill: none; stroke: #333333; stroke-width: 0.5"/>
    <path d="M 126.709386 231.3025 
L 17.14375 231.3025 
L 17.14375 471.6325 
L 76.941056 471.6325 
" clip-path="url(#p8e6e508c8d)" style="fill: none; stroke: #333333; stroke-width: 0.5"/>
   </g>
  </g>
  <g id="axes_2">
   <g id="patch_2">
    <path d="M 144.21875 611.825 
L 164.201562 611.825 
L 164.201562 131.165 
L 144.21875 131.165 
z
" style="fill: #ffffff"/>
   </g>
   <g id="QuadMesh_1">
    <path d="M 144.21875 131.165 
L 164.201562 131.165 
L 164.201562 211.275 
L 144.21875 211.275 
L 144.21875 131.165 
" clip-path="url(#p00b51898ce)" style="fill: #ff0000"/>
    <path d="M 144.21875 211.275 
L 164.201562 211.275 
L 164.201562 291.385 
L 144.21875 291.385 
L 144.21875 211.275 
" clip-path="url(#p00b51898ce)" style="fill: #0000ff"/>
    <path d="M 144.21875 291.385 
L 164.201562 291.385 
L 164.201562 371.495 
L 144.21875 371.495 
L 144.21875 291.385 
" clip-path="url(#p00b51898ce)" style="fill: #0000ff"/>
    <path d="M 144.21875 371.495 
L 164.201562 371.495 
L 164.201562 451.605 
L 144.21875 451.605 
L 144.21875 371.495 
" clip-path="url(#p00b51898ce)" style="fill: #0000ff"/>
    <path d="M 144.21875 451.605 
L 164.201562 451.605 
L 164.201562 531.715 
L 144.21875 531.715 
L 144.21875 451.605 
" clip-path="url(#p00b51898ce)" style="fill: #ff0000"/>
    <path d="M 144.21875 531.715 
L 164.201562 531.715 
L 164.201562 611.825 
L 144.21875 611.825 
L 144.21875 531.715 
" clip-path="url(#p00b51898ce)" style="fill: #ff0000"/>
   </g>
   <g id="matplotlib.axis_1">
    <g id="xtick_1">
     <g id="line2d_1">
      <defs>
       <path id="mcdf75e65dd" d="M 0 0 
L 0 3.5 
" style="stroke: #000000; stroke-width: 0.8"/>
      </defs>
      <g>
       <use xlink:href="#mcdf75e65dd" x="154.210156" y="611.825" style="stroke: #000000; stroke-width: 0.8"/>
      </g>
     </g>
     <g id="text_1">
      <!-- Decoupling_effect -->
      <g transform="translate(156.830469 708.989062)rotate(-90)scale(0.1 -0.1)">
       <defs>
        <path id="DejaVuSans-44" d="M 1259 4147 
L 1259 519 
L 2022 519 
Q 2988 519 3436 956 
Q 3884 1394 3884 2338 
Q 3884 3275 3436 3711 
Q 2988 4147 2022 4147 
L 1259 4147 
z
M 628 4666 
L 1925 4666 
Q 3281 4666 3915 4102 
Q 4550 3538 4550 2338 
Q 4550 1131 3912 565 
Q 3275 0 1925 0 
L 628 0 
L 628 4666 
z
" transform="scale(0.015625)"/>
        <path id="DejaVuSans-65" d="M 3597 1894 
L 3597 1613 
L 953 1613 
Q 991 1019 1311 708 
Q 1631 397 2203 397 
Q 2534 397 2845 478 
Q 3156 559 3463 722 
L 3463 178 
Q 3153 47 2828 -22 
Q 2503 -91 2169 -91 
Q 1331 -91 842 396 
Q 353 884 353 1716 
Q 353 2575 817 3079 
Q 1281 3584 2069 3584 
Q 2775 3584 3186 3129 
Q 3597 2675 3597 1894 
z
M 3022 2063 
Q 3016 2534 2758 2815 
Q 2500 3097 2075 3097 
Q 1594 3097 1305 2825 
Q 1016 2553 972 2059 
L 3022 2063 
z
" transform="scale(0.015625)"/>
        <path id="DejaVuSans-63" d="M 3122 3366 
L 3122 2828 
Q 2878 2963 2633 3030 
Q 2388 3097 2138 3097 
Q 1578 3097 1268 2742 
Q 959 2388 959 1747 
Q 959 1106 1268 751 
Q 1578 397 2138 397 
Q 2388 397 2633 464 
Q 2878 531 3122 666 
L 3122 134 
Q 2881 22 2623 -34 
Q 2366 -91 2075 -91 
Q 1284 -91 818 406 
Q 353 903 353 1747 
Q 353 2603 823 3093 
Q 1294 3584 2113 3584 
Q 2378 3584 2631 3529 
Q 2884 3475 3122 3366 
z
" transform="scale(0.015625)"/>
        <path id="DejaVuSans-6f" d="M 1959 3097 
Q 1497 3097 1228 2736 
Q 959 2375 959 1747 
Q 959 1119 1226 758 
Q 1494 397 1959 397 
Q 2419 397 2687 759 
Q 2956 1122 2956 1747 
Q 2956 2369 2687 2733 
Q 2419 3097 1959 3097 
z
M 1959 3584 
Q 2709 3584 3137 3096 
Q 3566 2609 3566 1747 
Q 3566 888 3137 398 
Q 2709 -91 1959 -91 
Q 1206 -91 779 398 
Q 353 888 353 1747 
Q 353 2609 779 3096 
Q 1206 3584 1959 3584 
z
" transform="scale(0.015625)"/>
        <path id="DejaVuSans-75" d="M 544 1381 
L 544 3500 
L 1119 3500 
L 1119 1403 
Q 1119 906 1312 657 
Q 1506 409 1894 409 
Q 2359 409 2629 706 
Q 2900 1003 2900 1516 
L 2900 3500 
L 3475 3500 
L 3475 0 
L 2900 0 
L 2900 538 
Q 2691 219 2414 64 
Q 2138 -91 1772 -91 
Q 1169 -91 856 284 
Q 544 659 544 1381 
z
M 1991 3584 
L 1991 3584 
z
" transform="scale(0.015625)"/>
        <path id="DejaVuSans-70" d="M 1159 525 
L 1159 -1331 
L 581 -1331 
L 581 3500 
L 1159 3500 
L 1159 2969 
Q 1341 3281 1617 3432 
Q 1894 3584 2278 3584 
Q 2916 3584 3314 3078 
Q 3713 2572 3713 1747 
Q 3713 922 3314 415 
Q 2916 -91 2278 -91 
Q 1894 -91 1617 61 
Q 1341 213 1159 525 
z
M 3116 1747 
Q 3116 2381 2855 2742 
Q 2594 3103 2138 3103 
Q 1681 3103 1420 2742 
Q 1159 2381 1159 1747 
Q 1159 1113 1420 752 
Q 1681 391 2138 391 
Q 2594 391 2855 752 
Q 3116 1113 3116 1747 
z
" transform="scale(0.015625)"/>
        <path id="DejaVuSans-6c" d="M 603 4863 
L 1178 4863 
L 1178 0 
L 603 0 
L 603 4863 
z
" transform="scale(0.015625)"/>
        <path id="DejaVuSans-69" d="M 603 3500 
L 1178 3500 
L 1178 0 
L 603 0 
L 603 3500 
z
M 603 4863 
L 1178 4863 
L 1178 4134 
L 603 4134 
L 603 4863 
z
" transform="scale(0.015625)"/>
        <path id="DejaVuSans-6e" d="M 3513 2113 
L 3513 0 
L 2938 0 
L 2938 2094 
Q 2938 2591 2744 2837 
Q 2550 3084 2163 3084 
Q 1697 3084 1428 2787 
Q 1159 2491 1159 1978 
L 1159 0 
L 581 0 
L 581 3500 
L 1159 3500 
L 1159 2956 
Q 1366 3272 1645 3428 
Q 1925 3584 2291 3584 
Q 2894 3584 3203 3211 
Q 3513 2838 3513 2113 
z
" transform="scale(0.015625)"/>
        <path id="DejaVuSans-67" d="M 2906 1791 
Q 2906 2416 2648 2759 
Q 2391 3103 1925 3103 
Q 1463 3103 1205 2759 
Q 947 2416 947 1791 
Q 947 1169 1205 825 
Q 1463 481 1925 481 
Q 2391 481 2648 825 
Q 2906 1169 2906 1791 
z
M 3481 434 
Q 3481 -459 3084 -895 
Q 2688 -1331 1869 -1331 
Q 1566 -1331 1297 -1286 
Q 1028 -1241 775 -1147 
L 775 -588 
Q 1028 -725 1275 -790 
Q 1522 -856 1778 -856 
Q 2344 -856 2625 -561 
Q 2906 -266 2906 331 
L 2906 616 
Q 2728 306 2450 153 
Q 2172 0 1784 0 
Q 1141 0 747 490 
Q 353 981 353 1791 
Q 353 2603 747 3093 
Q 1141 3584 1784 3584 
Q 2172 3584 2450 3431 
Q 2728 3278 2906 2969 
L 2906 3500 
L 3481 3500 
L 3481 434 
z
" transform="scale(0.015625)"/>
        <path id="DejaVuSans-5f" d="M 3263 -1063 
L 3263 -1509 
L -63 -1509 
L -63 -1063 
L 3263 -1063 
z
" transform="scale(0.015625)"/>
        <path id="DejaVuSans-66" d="M 2375 4863 
L 2375 4384 
L 1825 4384 
Q 1516 4384 1395 4259 
Q 1275 4134 1275 3809 
L 1275 3500 
L 2222 3500 
L 2222 3053 
L 1275 3053 
L 1275 0 
L 697 0 
L 697 3053 
L 147 3053 
L 147 3500 
L 697 3500 
L 697 3744 
Q 697 4328 969 4595 
Q 1241 4863 1831 4863 
L 2375 4863 
z
" transform="scale(0.015625)"/>
        <path id="DejaVuSans-74" d="M 1172 4494 
L 1172 3500 
L 2356 3500 
L 2356 3053 
L 1172 3053 
L 1172 1153 
Q 1172 725 1289 603 
Q 1406 481 1766 481 
L 2356 481 
L 2356 0 
L 1766 0 
Q 1100 0 847 248 
Q 594 497 594 1153 
L 594 3053 
L 172 3053 
L 172 3500 
L 594 3500 
L 594 4494 
L 1172 4494 
z
" transform="scale(0.015625)"/>
       </defs>
       <use xlink:href="#DejaVuSans-44"/>
       <use xlink:href="#DejaVuSans-65" x="77.001953"/>
       <use xlink:href="#DejaVuSans-63" x="138.525391"/>
       <use xlink:href="#DejaVuSans-6f" x="193.505859"/>
       <use xlink:href="#DejaVuSans-75" x="254.6875"/>
       <use xlink:href="#DejaVuSans-70" x="318.066406"/>
       <use xlink:href="#DejaVuSans-6c" x="381.542969"/>
       <use xlink:href="#DejaVuSans-69" x="409.326172"/>
       <use xlink:href="#DejaVuSans-6e" x="437.109375"/>
       <use xlink:href="#DejaVuSans-67" x="500.488281"/>
       <use xlink:href="#DejaVuSans-5f" x="563.964844"/>
       <use xlink:href="#DejaVuSans-65" x="613.964844"/>
       <use xlink:href="#DejaVuSans-66" x="675.488281"/>
       <use xlink:href="#DejaVuSans-66" x="710.693359"/>
       <use xlink:href="#DejaVuSans-65" x="745.898438"/>
       <use xlink:href="#DejaVuSans-63" x="807.421875"/>
       <use xlink:href="#DejaVuSans-74" x="862.402344"/>
      </g>
     </g>
    </g>
   </g>
   <g id="matplotlib.axis_2"/>
  </g>
  <g id="axes_3">
   <g id="patch_3">
    <path d="M 164.401562 611.825 
L 677.29375 611.825 
L 677.29375 131.165 
L 164.401562 131.165 
z
" style="fill: #ffffff"/>
   </g>
   <g id="QuadMesh_2">
    <path d="M 164.401562 131.165 
L 335.365625 131.165 
L 335.365625 211.275 
L 164.401562 211.275 
L 164.401562 131.165 
" clip-path="url(#p06e18d0412)" style="fill: #990026"/>
    <path d="M 335.365625 131.165 
L 506.329687 131.165 
L 506.329687 211.275 
L 335.365625 211.275 
L 335.365625 131.165 
" clip-path="url(#p06e18d0412)" style="fill: #c70723"/>
    <path d="M 506.329687 131.165 
L 677.29375 131.165 
L 677.29375 211.275 
L 506.329687 211.275 
L 506.329687 131.165 
" clip-path="url(#p06e18d0412)" style="fill: #b20026"/>
    <path d="M 164.401562 211.275 
L 335.365625 211.275 
L 335.365625 291.385 
L 164.401562 291.385 
L 164.401562 211.275 
" clip-path="url(#p06e18d0412)" style="fill: #990026"/>
    <path d="M 335.365625 211.275 
L 506.329687 211.275 
L 506.329687 291.385 
L 335.365625 291.385 
L 335.365625 211.275 
" clip-path="url(#p06e18d0412)" style="fill: #b20026"/>
    <path d="M 506.329687 211.275 
L 677.29375 211.275 
L 677.29375 291.385 
L 506.329687 291.385 
L 506.329687 211.275 
" clip-path="url(#p06e18d0412)" style="fill: #990026"/>
    <path d="M 164.401562 291.385 
L 335.365625 291.385 
L 335.365625 371.495 
L 164.401562 371.495 
L 164.401562 291.385 
" clip-path="url(#p06e18d0412)" style="fill: #990026"/>
    <path d="M 335.365625 291.385 
L 506.329687 291.385 
L 506.329687 371.495 
L 335.365625 371.495 
L 335.365625 291.385 
" clip-path="url(#p06e18d0412)" style="fill: #990026"/>
    <path d="M 506.329687 291.385 
L 677.29375 291.385 
L 677.29375 371.495 
L 506.329687 371.495 
L 506.329687 291.385 
" clip-path="url(#p06e18d0412)" style="fill: #990026"/>
    <path d="M 164.401562 371.495 
L 335.365625 371.495 
L 335.365625 451.605 
L 164.401562 451.605 
L 164.401562 371.495 
" clip-path="url(#p06e18d0412)" style="fill: #fd953f"/>
    <path d="M 335.365625 371.495 
L 506.329687 371.495 
L 506.329687 451.605 
L 335.365625 451.605 
L 335.365625 371.495 
" clip-path="url(#p06e18d0412)" style="fill: #c70723"/>
    <path d="M 506.329687 371.495 
L 677.29375 371.495 
L 677.29375 451.605 
L 506.329687 451.605 
L 506.329687 371.495 
" clip-path="url(#p06e18d0412)" style="fill: #fb4b29"/>
    <path d="M 164.401562 451.605 
L 335.365625 451.605 
L 335.365625 531.715 
L 164.401562 531.715 
L 164.401562 451.605 
" clip-path="url(#p06e18d0412)" style="fill: #fff8ba"/>
    <path d="M 335.365625 451.605 
L 506.329687 451.605 
L 506.329687 531.715 
L 335.365625 531.715 
L 335.365625 451.605 
" clip-path="url(#p06e18d0412)" style="fill: #c70723"/>
    <path d="M 506.329687 451.605 
L 677.29375 451.605 
L 677.29375 531.715 
L 506.329687 531.715 
L 506.329687 451.605 
" clip-path="url(#p06e18d0412)" style="fill: #fea546"/>
    <path d="M 164.401562 531.715 
L 335.365625 531.715 
L 335.365625 611.825 
L 164.401562 611.825 
L 164.401562 531.715 
" clip-path="url(#p06e18d0412)" style="fill: #fff8ba"/>
    <path d="M 335.365625 531.715 
L 506.329687 531.715 
L 506.329687 611.825 
L 335.365625 611.825 
L 335.365625 531.715 
" clip-path="url(#p06e18d0412)" style="fill: #c70723"/>
    <path d="M 506.329687 531.715 
L 677.29375 531.715 
L 677.29375 611.825 
L 506.329687 611.825 
L 506.329687 531.715 
" clip-path="url(#p06e18d0412)" style="fill: #fea546"/>
   </g>
   <g id="matplotlib.axis_3">
    <g id="xtick_2">
     <g id="line2d_2">
      <g>
       <use xlink:href="#mcdf75e65dd" x="249.883594" y="611.825" style="stroke: #000000; stroke-width: 0.8"/>
      </g>
     </g>
     <g id="text_2">
      <!-- Flux_impact -->
      <g transform="translate(219.783594 626.423437)scale(0.1 -0.1)">
       <defs>
        <path id="DejaVuSans-46" d="M 628 4666 
L 3309 4666 
L 3309 4134 
L 1259 4134 
L 1259 2759 
L 3109 2759 
L 3109 2228 
L 1259 2228 
L 1259 0 
L 628 0 
L 628 4666 
z
" transform="scale(0.015625)"/>
        <path id="DejaVuSans-78" d="M 3513 3500 
L 2247 1797 
L 3578 0 
L 2900 0 
L 1881 1375 
L 863 0 
L 184 0 
L 1544 1831 
L 300 3500 
L 978 3500 
L 1906 2253 
L 2834 3500 
L 3513 3500 
z
" transform="scale(0.015625)"/>
        <path id="DejaVuSans-6d" d="M 3328 2828 
Q 3544 3216 3844 3400 
Q 4144 3584 4550 3584 
Q 5097 3584 5394 3201 
Q 5691 2819 5691 2113 
L 5691 0 
L 5113 0 
L 5113 2094 
Q 5113 2597 4934 2840 
Q 4756 3084 4391 3084 
Q 3944 3084 3684 2787 
Q 3425 2491 3425 1978 
L 3425 0 
L 2847 0 
L 2847 2094 
Q 2847 2600 2669 2842 
Q 2491 3084 2119 3084 
Q 1678 3084 1418 2786 
Q 1159 2488 1159 1978 
L 1159 0 
L 581 0 
L 581 3500 
L 1159 3500 
L 1159 2956 
Q 1356 3278 1631 3431 
Q 1906 3584 2284 3584 
Q 2666 3584 2933 3390 
Q 3200 3197 3328 2828 
z
" transform="scale(0.015625)"/>
        <path id="DejaVuSans-61" d="M 2194 1759 
Q 1497 1759 1228 1600 
Q 959 1441 959 1056 
Q 959 750 1161 570 
Q 1363 391 1709 391 
Q 2188 391 2477 730 
Q 2766 1069 2766 1631 
L 2766 1759 
L 2194 1759 
z
M 3341 1997 
L 3341 0 
L 2766 0 
L 2766 531 
Q 2569 213 2275 61 
Q 1981 -91 1556 -91 
Q 1019 -91 701 211 
Q 384 513 384 1019 
Q 384 1609 779 1909 
Q 1175 2209 1959 2209 
L 2766 2209 
L 2766 2266 
Q 2766 2663 2505 2880 
Q 2244 3097 1772 3097 
Q 1472 3097 1187 3025 
Q 903 2953 641 2809 
L 641 3341 
Q 956 3463 1253 3523 
Q 1550 3584 1831 3584 
Q 2591 3584 2966 3190 
Q 3341 2797 3341 1997 
z
" transform="scale(0.015625)"/>
       </defs>
       <use xlink:href="#DejaVuSans-46"/>
       <use xlink:href="#DejaVuSans-6c" x="57.519531"/>
       <use xlink:href="#DejaVuSans-75" x="85.302734"/>
       <use xlink:href="#DejaVuSans-78" x="148.681641"/>
       <use xlink:href="#DejaVuSans-5f" x="207.861328"/>
       <use xlink:href="#DejaVuSans-69" x="257.861328"/>
       <use xlink:href="#DejaVuSans-6d" x="285.644531"/>
       <use xlink:href="#DejaVuSans-70" x="383.056641"/>
       <use xlink:href="#DejaVuSans-61" x="446.533203"/>
       <use xlink:href="#DejaVuSans-63" x="507.8125"/>
       <use xlink:href="#DejaVuSans-74" x="562.792969"/>
      </g>
     </g>
    </g>
    <g id="xtick_3">
     <g id="line2d_3">
      <g>
       <use xlink:href="#mcdf75e65dd" x="420.847656" y="611.825" style="stroke: #000000; stroke-width: 0.8"/>
      </g>
     </g>
     <g id="text_3">
      <!-- Coupling_strength_impact -->
      <g transform="translate(355.569531 626.423437)scale(0.1 -0.1)">
       <defs>
        <path id="DejaVuSans-43" d="M 4122 4306 
L 4122 3641 
Q 3803 3938 3442 4084 
Q 3081 4231 2675 4231 
Q 1875 4231 1450 3742 
Q 1025 3253 1025 2328 
Q 1025 1406 1450 917 
Q 1875 428 2675 428 
Q 3081 428 3442 575 
Q 3803 722 4122 1019 
L 4122 359 
Q 3791 134 3420 21 
Q 3050 -91 2638 -91 
Q 1578 -91 968 557 
Q 359 1206 359 2328 
Q 359 3453 968 4101 
Q 1578 4750 2638 4750 
Q 3056 4750 3426 4639 
Q 3797 4528 4122 4306 
z
" transform="scale(0.015625)"/>
        <path id="DejaVuSans-73" d="M 2834 3397 
L 2834 2853 
Q 2591 2978 2328 3040 
Q 2066 3103 1784 3103 
Q 1356 3103 1142 2972 
Q 928 2841 928 2578 
Q 928 2378 1081 2264 
Q 1234 2150 1697 2047 
L 1894 2003 
Q 2506 1872 2764 1633 
Q 3022 1394 3022 966 
Q 3022 478 2636 193 
Q 2250 -91 1575 -91 
Q 1294 -91 989 -36 
Q 684 19 347 128 
L 347 722 
Q 666 556 975 473 
Q 1284 391 1588 391 
Q 1994 391 2212 530 
Q 2431 669 2431 922 
Q 2431 1156 2273 1281 
Q 2116 1406 1581 1522 
L 1381 1569 
Q 847 1681 609 1914 
Q 372 2147 372 2553 
Q 372 3047 722 3315 
Q 1072 3584 1716 3584 
Q 2034 3584 2315 3537 
Q 2597 3491 2834 3397 
z
" transform="scale(0.015625)"/>
        <path id="DejaVuSans-72" d="M 2631 2963 
Q 2534 3019 2420 3045 
Q 2306 3072 2169 3072 
Q 1681 3072 1420 2755 
Q 1159 2438 1159 1844 
L 1159 0 
L 581 0 
L 581 3500 
L 1159 3500 
L 1159 2956 
Q 1341 3275 1631 3429 
Q 1922 3584 2338 3584 
Q 2397 3584 2469 3576 
Q 2541 3569 2628 3553 
L 2631 2963 
z
" transform="scale(0.015625)"/>
        <path id="DejaVuSans-68" d="M 3513 2113 
L 3513 0 
L 2938 0 
L 2938 2094 
Q 2938 2591 2744 2837 
Q 2550 3084 2163 3084 
Q 1697 3084 1428 2787 
Q 1159 2491 1159 1978 
L 1159 0 
L 581 0 
L 581 4863 
L 1159 4863 
L 1159 2956 
Q 1366 3272 1645 3428 
Q 1925 3584 2291 3584 
Q 2894 3584 3203 3211 
Q 3513 2838 3513 2113 
z
" transform="scale(0.015625)"/>
       </defs>
       <use xlink:href="#DejaVuSans-43"/>
       <use xlink:href="#DejaVuSans-6f" x="69.824219"/>
       <use xlink:href="#DejaVuSans-75" x="131.005859"/>
       <use xlink:href="#DejaVuSans-70" x="194.384766"/>
       <use xlink:href="#DejaVuSans-6c" x="257.861328"/>
       <use xlink:href="#DejaVuSans-69" x="285.644531"/>
       <use xlink:href="#DejaVuSans-6e" x="313.427734"/>
       <use xlink:href="#DejaVuSans-67" x="376.806641"/>
       <use xlink:href="#DejaVuSans-5f" x="440.283203"/>
       <use xlink:href="#DejaVuSans-73" x="490.283203"/>
       <use xlink:href="#DejaVuSans-74" x="542.382812"/>
       <use xlink:href="#DejaVuSans-72" x="581.591797"/>
       <use xlink:href="#DejaVuSans-65" x="620.455078"/>
       <use xlink:href="#DejaVuSans-6e" x="681.978516"/>
       <use xlink:href="#DejaVuSans-67" x="745.357422"/>
       <use xlink:href="#DejaVuSans-74" x="808.833984"/>
       <use xlink:href="#DejaVuSans-68" x="848.042969"/>
       <use xlink:href="#DejaVuSans-5f" x="911.421875"/>
       <use xlink:href="#DejaVuSans-69" x="961.421875"/>
       <use xlink:href="#DejaVuSans-6d" x="989.205078"/>
       <use xlink:href="#DejaVuSans-70" x="1086.617188"/>
       <use xlink:href="#DejaVuSans-61" x="1150.09375"/>
       <use xlink:href="#DejaVuSans-63" x="1211.373047"/>
       <use xlink:href="#DejaVuSans-74" x="1266.353516"/>
      </g>
     </g>
    </g>
    <g id="xtick_4">
     <g id="line2d_4">
      <g>
       <use xlink:href="#mcdf75e65dd" x="591.811719" y="611.825" style="stroke: #000000; stroke-width: 0.8"/>
      </g>
     </g>
     <g id="text_4">
      <!-- Impact_Score -->
      <g transform="translate(558.016406 626.246875)scale(0.1 -0.1)">
       <defs>
        <path id="DejaVuSans-49" d="M 628 4666 
L 1259 4666 
L 1259 0 
L 628 0 
L 628 4666 
z
" transform="scale(0.015625)"/>
        <path id="DejaVuSans-53" d="M 3425 4513 
L 3425 3897 
Q 3066 4069 2747 4153 
Q 2428 4238 2131 4238 
Q 1616 4238 1336 4038 
Q 1056 3838 1056 3469 
Q 1056 3159 1242 3001 
Q 1428 2844 1947 2747 
L 2328 2669 
Q 3034 2534 3370 2195 
Q 3706 1856 3706 1288 
Q 3706 609 3251 259 
Q 2797 -91 1919 -91 
Q 1588 -91 1214 -16 
Q 841 59 441 206 
L 441 856 
Q 825 641 1194 531 
Q 1563 422 1919 422 
Q 2459 422 2753 634 
Q 3047 847 3047 1241 
Q 3047 1584 2836 1778 
Q 2625 1972 2144 2069 
L 1759 2144 
Q 1053 2284 737 2584 
Q 422 2884 422 3419 
Q 422 4038 858 4394 
Q 1294 4750 2059 4750 
Q 2388 4750 2728 4690 
Q 3069 4631 3425 4513 
z
" transform="scale(0.015625)"/>
       </defs>
       <use xlink:href="#DejaVuSans-49"/>
       <use xlink:href="#DejaVuSans-6d" x="29.492188"/>
       <use xlink:href="#DejaVuSans-70" x="126.904297"/>
       <use xlink:href="#DejaVuSans-61" x="190.380859"/>
       <use xlink:href="#DejaVuSans-63" x="251.660156"/>
       <use xlink:href="#DejaVuSans-74" x="306.640625"/>
       <use xlink:href="#DejaVuSans-5f" x="345.849609"/>
       <use xlink:href="#DejaVuSans-53" x="395.849609"/>
       <use xlink:href="#DejaVuSans-63" x="459.326172"/>
       <use xlink:href="#DejaVuSans-6f" x="514.306641"/>
       <use xlink:href="#DejaVuSans-72" x="575.488281"/>
       <use xlink:href="#DejaVuSans-65" x="614.351562"/>
      </g>
     </g>
    </g>
   </g>
   <g id="matplotlib.axis_4">
    <g id="ytick_1">
     <g id="line2d_5">
      <defs>
       <path id="me3fc0bce4c" d="M 0 0 
L 3.5 0 
" style="stroke: #000000; stroke-width: 0.8"/>
      </defs>
      <g>
       <use xlink:href="#me3fc0bce4c" x="677.29375" y="171.22" style="stroke: #000000; stroke-width: 0.8"/>
      </g>
     </g>
     <g id="text_5">
      <!-- PDH -->
      <g transform="translate(691.892187 188.670781)rotate(-90)scale(0.1 -0.1)">
       <defs>
        <path id="DejaVuSans-50" d="M 1259 4147 
L 1259 2394 
L 2053 2394 
Q 2494 2394 2734 2622 
Q 2975 2850 2975 3272 
Q 2975 3691 2734 3919 
Q 2494 4147 2053 4147 
L 1259 4147 
z
M 628 4666 
L 2053 4666 
Q 2838 4666 3239 4311 
Q 3641 3956 3641 3272 
Q 3641 2581 3239 2228 
Q 2838 1875 2053 1875 
L 1259 1875 
L 1259 0 
L 628 0 
L 628 4666 
z
" transform="scale(0.015625)"/>
        <path id="DejaVuSans-48" d="M 628 4666 
L 1259 4666 
L 1259 2753 
L 3553 2753 
L 3553 4666 
L 4184 4666 
L 4184 0 
L 3553 0 
L 3553 2222 
L 1259 2222 
L 1259 0 
L 628 0 
L 628 4666 
z
" transform="scale(0.015625)"/>
       </defs>
       <use xlink:href="#DejaVuSans-50"/>
       <use xlink:href="#DejaVuSans-44" x="60.302734"/>
       <use xlink:href="#DejaVuSans-48" x="137.304688"/>
      </g>
     </g>
    </g>
    <g id="ytick_2">
     <g id="line2d_6">
      <g>
       <use xlink:href="#me3fc0bce4c" x="677.29375" y="251.33" style="stroke: #000000; stroke-width: 0.8"/>
      </g>
     </g>
     <g id="text_6">
      <!-- PPKr -->
      <g transform="translate(691.892187 270.258906)rotate(-90)scale(0.1 -0.1)">
       <defs>
        <path id="DejaVuSans-4b" d="M 628 4666 
L 1259 4666 
L 1259 2694 
L 3353 4666 
L 4166 4666 
L 1850 2491 
L 4331 0 
L 3500 0 
L 1259 2247 
L 1259 0 
L 628 0 
L 628 4666 
z
" transform="scale(0.015625)"/>
       </defs>
       <use xlink:href="#DejaVuSans-50"/>
       <use xlink:href="#DejaVuSans-50" x="60.302734"/>
       <use xlink:href="#DejaVuSans-4b" x="120.605469"/>
       <use xlink:href="#DejaVuSans-72" x="186.181641"/>
      </g>
     </g>
    </g>
    <g id="ytick_3">
     <g id="line2d_7">
      <g>
       <use xlink:href="#me3fc0bce4c" x="677.29375" y="331.44" style="stroke: #000000; stroke-width: 0.8"/>
      </g>
     </g>
     <g id="text_7">
      <!-- ATPS4rpp -->
      <g transform="translate(691.892187 375.362656)rotate(-90)scale(0.1 -0.1)">
       <defs>
        <path id="DejaVuSans-41" d="M 2188 4044 
L 1331 1722 
L 3047 1722 
L 2188 4044 
z
M 1831 4666 
L 2547 4666 
L 4325 0 
L 3669 0 
L 3244 1197 
L 1141 1197 
L 716 0 
L 50 0 
L 1831 4666 
z
" transform="scale(0.015625)"/>
        <path id="DejaVuSans-54" d="M -19 4666 
L 3928 4666 
L 3928 4134 
L 2272 4134 
L 2272 0 
L 1638 0 
L 1638 4134 
L -19 4134 
L -19 4666 
z
" transform="scale(0.015625)"/>
        <path id="DejaVuSans-34" d="M 2419 4116 
L 825 1625 
L 2419 1625 
L 2419 4116 
z
M 2253 4666 
L 3047 4666 
L 3047 1625 
L 3713 1625 
L 3713 1100 
L 3047 1100 
L 3047 0 
L 2419 0 
L 2419 1100 
L 313 1100 
L 313 1709 
L 2253 4666 
z
" transform="scale(0.015625)"/>
       </defs>
       <use xlink:href="#DejaVuSans-41"/>
       <use xlink:href="#DejaVuSans-54" x="60.658203"/>
       <use xlink:href="#DejaVuSans-50" x="121.742188"/>
       <use xlink:href="#DejaVuSans-53" x="182.044922"/>
       <use xlink:href="#DejaVuSans-34" x="245.521484"/>
       <use xlink:href="#DejaVuSans-72" x="309.144531"/>
       <use xlink:href="#DejaVuSans-70" x="350.257812"/>
       <use xlink:href="#DejaVuSans-70" x="413.734375"/>
      </g>
     </g>
    </g>
    <g id="ytick_4">
     <g id="line2d_8">
      <g>
       <use xlink:href="#me3fc0bce4c" x="677.29375" y="411.55" style="stroke: #000000; stroke-width: 0.8"/>
      </g>
     </g>
     <g id="text_8">
      <!-- FRK -->
      <g transform="translate(691.892187 427.008594)rotate(-90)scale(0.1 -0.1)">
       <defs>
        <path id="DejaVuSans-52" d="M 2841 2188 
Q 3044 2119 3236 1894 
Q 3428 1669 3622 1275 
L 4263 0 
L 3584 0 
L 2988 1197 
Q 2756 1666 2539 1819 
Q 2322 1972 1947 1972 
L 1259 1972 
L 1259 0 
L 628 0 
L 628 4666 
L 2053 4666 
Q 2853 4666 3247 4331 
Q 3641 3997 3641 3322 
Q 3641 2881 3436 2590 
Q 3231 2300 2841 2188 
z
M 1259 4147 
L 1259 2491 
L 2053 2491 
Q 2509 2491 2742 2702 
Q 2975 2913 2975 3322 
Q 2975 3731 2742 3939 
Q 2509 4147 2053 4147 
L 1259 4147 
z
" transform="scale(0.015625)"/>
       </defs>
       <use xlink:href="#DejaVuSans-46"/>
       <use xlink:href="#DejaVuSans-52" x="57.519531"/>
       <use xlink:href="#DejaVuSans-4b" x="127.001953"/>
      </g>
     </g>
    </g>
    <g id="ytick_5">
     <g id="line2d_9">
      <g>
       <use xlink:href="#me3fc0bce4c" x="677.29375" y="491.66" style="stroke: #000000; stroke-width: 0.8"/>
      </g>
     </g>
     <g id="text_9">
      <!-- Htex -->
      <g transform="translate(691.892187 511.198281)rotate(-90)scale(0.1 -0.1)">
       <use xlink:href="#DejaVuSans-48"/>
       <use xlink:href="#DejaVuSans-74" x="75.195312"/>
       <use xlink:href="#DejaVuSans-65" x="114.404297"/>
       <use xlink:href="#DejaVuSans-78" x="174.177734"/>
      </g>
     </g>
    </g>
    <g id="ytick_6">
     <g id="line2d_10">
      <g>
       <use xlink:href="#me3fc0bce4c" x="677.29375" y="571.77" style="stroke: #000000; stroke-width: 0.8"/>
      </g>
     </g>
     <g id="text_10">
      <!-- O2tex -->
      <g transform="translate(691.892187 598.022344)rotate(-90)scale(0.1 -0.1)">
       <defs>
        <path id="DejaVuSans-4f" d="M 2522 4238 
Q 1834 4238 1429 3725 
Q 1025 3213 1025 2328 
Q 1025 1447 1429 934 
Q 1834 422 2522 422 
Q 3209 422 3611 934 
Q 4013 1447 4013 2328 
Q 4013 3213 3611 3725 
Q 3209 4238 2522 4238 
z
M 2522 4750 
Q 3503 4750 4090 4092 
Q 4678 3434 4678 2328 
Q 4678 1225 4090 567 
Q 3503 -91 2522 -91 
Q 1538 -91 948 565 
Q 359 1222 359 2328 
Q 359 3434 948 4092 
Q 1538 4750 2522 4750 
z
" transform="scale(0.015625)"/>
        <path id="DejaVuSans-32" d="M 1228 531 
L 3431 531 
L 3431 0 
L 469 0 
L 469 531 
Q 828 903 1448 1529 
Q 2069 2156 2228 2338 
Q 2531 2678 2651 2914 
Q 2772 3150 2772 3378 
Q 2772 3750 2511 3984 
Q 2250 4219 1831 4219 
Q 1534 4219 1204 4116 
Q 875 4013 500 3803 
L 500 4441 
Q 881 4594 1212 4672 
Q 1544 4750 1819 4750 
Q 2544 4750 2975 4387 
Q 3406 4025 3406 3419 
Q 3406 3131 3298 2873 
Q 3191 2616 2906 2266 
Q 2828 2175 2409 1742 
Q 1991 1309 1228 531 
z
" transform="scale(0.015625)"/>
       </defs>
       <use xlink:href="#DejaVuSans-4f"/>
       <use xlink:href="#DejaVuSans-32" x="78.710938"/>
       <use xlink:href="#DejaVuSans-74" x="142.333984"/>
       <use xlink:href="#DejaVuSans-65" x="181.542969"/>
       <use xlink:href="#DejaVuSans-78" x="241.316406"/>
      </g>
     </g>
    </g>
    <g id="text_11">
     <!-- Reaction_ID -->
     <g transform="translate(705.570312 401.036406)rotate(-90)scale(0.1 -0.1)">
      <use xlink:href="#DejaVuSans-52"/>
      <use xlink:href="#DejaVuSans-65" x="64.982422"/>
      <use xlink:href="#DejaVuSans-61" x="126.505859"/>
      <use xlink:href="#DejaVuSans-63" x="187.785156"/>
      <use xlink:href="#DejaVuSans-74" x="242.765625"/>
      <use xlink:href="#DejaVuSans-69" x="281.974609"/>
      <use xlink:href="#DejaVuSans-6f" x="309.757812"/>
      <use xlink:href="#DejaVuSans-6e" x="370.939453"/>
      <use xlink:href="#DejaVuSans-5f" x="434.318359"/>
      <use xlink:href="#DejaVuSans-49" x="484.318359"/>
      <use xlink:href="#DejaVuSans-44" x="513.810547"/>
     </g>
    </g>
   </g>
  </g>
  <g id="axes_4">
   <g id="patch_4">
    <path d="M 14.4 144 
L 50.4 144 
L 50.4 14.4 
L 14.4 14.4 
z
" style="fill: #ffffff"/>
   </g>
   <g id="patch_5">
    <path clip-path="url(#p848700eb06)" style="fill: #ffffff; stroke: #ffffff; stroke-width: 0.01; stroke-linejoin: miter"/>
   </g>
   <g id="QuadMesh_3">
    <path d="M 14.4 144 
L 50.4 144 
L 50.4 136.8 
L 14.4 136.8 
L 14.4 144 
" clip-path="url(#p848700eb06)" style="fill: #fff8ba"/>
    <path d="M 14.4 136.8 
L 50.4 136.8 
L 50.4 129.6 
L 14.4 129.6 
L 14.4 136.8 
" clip-path="url(#p848700eb06)" style="fill: #fff0a8"/>
    <path d="M 14.4 129.6 
L 50.4 129.6 
L 50.4 122.4 
L 14.4 122.4 
L 14.4 129.6 
" clip-path="url(#p848700eb06)" style="fill: #ffe895"/>
    <path d="M 14.4 122.4 
L 50.4 122.4 
L 50.4 115.2 
L 14.4 115.2 
L 14.4 122.4 
" clip-path="url(#p848700eb06)" style="fill: #fee084"/>
    <path d="M 14.4 115.2 
L 50.4 115.2 
L 50.4 108 
L 14.4 108 
L 14.4 115.2 
" clip-path="url(#p848700eb06)" style="fill: #fed572"/>
    <path d="M 14.4 108 
L 50.4 108 
L 50.4 100.8 
L 14.4 100.8 
L 14.4 108 
" clip-path="url(#p848700eb06)" style="fill: #fec561"/>
    <path d="M 14.4 100.8 
L 50.4 100.8 
L 50.4 93.6 
L 14.4 93.6 
L 14.4 100.8 
" clip-path="url(#p848700eb06)" style="fill: #feb44e"/>
    <path d="M 14.4 93.6 
L 50.4 93.6 
L 50.4 86.4 
L 14.4 86.4 
L 14.4 93.6 
" clip-path="url(#p848700eb06)" style="fill: #fea546"/>
    <path d="M 14.4 86.4 
L 50.4 86.4 
L 50.4 79.2 
L 14.4 79.2 
L 14.4 86.4 
" clip-path="url(#p848700eb06)" style="fill: #fd953f"/>
    <path d="M 14.4 79.2 
L 50.4 79.2 
L 50.4 72 
L 14.4 72 
L 14.4 79.2 
" clip-path="url(#p848700eb06)" style="fill: #fd8038"/>
    <path d="M 14.4 72 
L 50.4 72 
L 50.4 64.8 
L 14.4 64.8 
L 14.4 72 
" clip-path="url(#p848700eb06)" style="fill: #fc6430"/>
    <path d="M 14.4 64.8 
L 50.4 64.8 
L 50.4 57.6 
L 14.4 57.6 
L 14.4 64.8 
" clip-path="url(#p848700eb06)" style="fill: #fb4b29"/>
    <path d="M 14.4 57.6 
L 50.4 57.6 
L 50.4 50.4 
L 14.4 50.4 
L 14.4 57.6 
" clip-path="url(#p848700eb06)" style="fill: #f03523"/>
    <path d="M 14.4 50.4 
L 50.4 50.4 
L 50.4 43.2 
L 14.4 43.2 
L 14.4 50.4 
" clip-path="url(#p848700eb06)" style="fill: #e61f1d"/>
    <path d="M 14.4 43.2 
L 50.4 43.2 
L 50.4 36 
L 14.4 36 
L 14.4 43.2 
" clip-path="url(#p848700eb06)" style="fill: #d6111f"/>
    <path d="M 14.4 36 
L 50.4 36 
L 50.4 28.8 
L 14.4 28.8 
L 14.4 36 
" clip-path="url(#p848700eb06)" style="fill: #c70723"/>
    <path d="M 14.4 28.8 
L 50.4 28.8 
L 50.4 21.6 
L 14.4 21.6 
L 14.4 28.8 
" clip-path="url(#p848700eb06)" style="fill: #b20026"/>
    <path d="M 14.4 21.6 
L 50.4 21.6 
L 50.4 14.4 
L 14.4 14.4 
L 14.4 21.6 
" clip-path="url(#p848700eb06)" style="fill: #990026"/>
   </g>
   <g id="matplotlib.axis_5">
    <g id="ytick_7">
     <g id="line2d_11">
      <g>
       <use xlink:href="#me3fc0bce4c" x="50.4" y="127.435363" style="stroke: #000000; stroke-width: 0.8"/>
      </g>
     </g>
     <g id="text_12">
      <!-- −8 -->
      <g transform="translate(57.4 131.234582)scale(0.1 -0.1)">
       <defs>
        <path id="DejaVuSans-2212" d="M 678 2272 
L 4684 2272 
L 4684 1741 
L 678 1741 
L 678 2272 
z
" transform="scale(0.015625)"/>
        <path id="DejaVuSans-38" d="M 2034 2216 
Q 1584 2216 1326 1975 
Q 1069 1734 1069 1313 
Q 1069 891 1326 650 
Q 1584 409 2034 409 
Q 2484 409 2743 651 
Q 3003 894 3003 1313 
Q 3003 1734 2745 1975 
Q 2488 2216 2034 2216 
z
M 1403 2484 
Q 997 2584 770 2862 
Q 544 3141 544 3541 
Q 544 4100 942 4425 
Q 1341 4750 2034 4750 
Q 2731 4750 3128 4425 
Q 3525 4100 3525 3541 
Q 3525 3141 3298 2862 
Q 3072 2584 2669 2484 
Q 3125 2378 3379 2068 
Q 3634 1759 3634 1313 
Q 3634 634 3220 271 
Q 2806 -91 2034 -91 
Q 1263 -91 848 271 
Q 434 634 434 1313 
Q 434 1759 690 2068 
Q 947 2378 1403 2484 
z
M 1172 3481 
Q 1172 3119 1398 2916 
Q 1625 2713 2034 2713 
Q 2441 2713 2670 2916 
Q 2900 3119 2900 3481 
Q 2900 3844 2670 4047 
Q 2441 4250 2034 4250 
Q 1625 4250 1398 4047 
Q 1172 3844 1172 3481 
z
" transform="scale(0.015625)"/>
       </defs>
       <use xlink:href="#DejaVuSans-2212"/>
       <use xlink:href="#DejaVuSans-38" x="83.789062"/>
      </g>
     </g>
    </g>
    <g id="ytick_8">
     <g id="line2d_12">
      <g>
       <use xlink:href="#me3fc0bce4c" x="50.4" y="99.347453" style="stroke: #000000; stroke-width: 0.8"/>
      </g>
     </g>
     <g id="text_13">
      <!-- −6 -->
      <g transform="translate(57.4 103.146672)scale(0.1 -0.1)">
       <defs>
        <path id="DejaVuSans-36" d="M 2113 2584 
Q 1688 2584 1439 2293 
Q 1191 2003 1191 1497 
Q 1191 994 1439 701 
Q 1688 409 2113 409 
Q 2538 409 2786 701 
Q 3034 994 3034 1497 
Q 3034 2003 2786 2293 
Q 2538 2584 2113 2584 
z
M 3366 4563 
L 3366 3988 
Q 3128 4100 2886 4159 
Q 2644 4219 2406 4219 
Q 1781 4219 1451 3797 
Q 1122 3375 1075 2522 
Q 1259 2794 1537 2939 
Q 1816 3084 2150 3084 
Q 2853 3084 3261 2657 
Q 3669 2231 3669 1497 
Q 3669 778 3244 343 
Q 2819 -91 2113 -91 
Q 1303 -91 875 529 
Q 447 1150 447 2328 
Q 447 3434 972 4092 
Q 1497 4750 2381 4750 
Q 2619 4750 2861 4703 
Q 3103 4656 3366 4563 
z
" transform="scale(0.015625)"/>
       </defs>
       <use xlink:href="#DejaVuSans-2212"/>
       <use xlink:href="#DejaVuSans-36" x="83.789062"/>
      </g>
     </g>
    </g>
    <g id="ytick_9">
     <g id="line2d_13">
      <g>
       <use xlink:href="#me3fc0bce4c" x="50.4" y="71.259543" style="stroke: #000000; stroke-width: 0.8"/>
      </g>
     </g>
     <g id="text_14">
      <!-- −4 -->
      <g transform="translate(57.4 75.058762)scale(0.1 -0.1)">
       <use xlink:href="#DejaVuSans-2212"/>
       <use xlink:href="#DejaVuSans-34" x="83.789062"/>
      </g>
     </g>
    </g>
    <g id="ytick_10">
     <g id="line2d_14">
      <g>
       <use xlink:href="#me3fc0bce4c" x="50.4" y="43.171633" style="stroke: #000000; stroke-width: 0.8"/>
      </g>
     </g>
     <g id="text_15">
      <!-- −2 -->
      <g transform="translate(57.4 46.970851)scale(0.1 -0.1)">
       <use xlink:href="#DejaVuSans-2212"/>
       <use xlink:href="#DejaVuSans-32" x="83.789062"/>
      </g>
     </g>
    </g>
    <g id="ytick_11">
     <g id="line2d_15">
      <g>
       <use xlink:href="#me3fc0bce4c" x="50.4" y="15.083723" style="stroke: #000000; stroke-width: 0.8"/>
      </g>
     </g>
     <g id="text_16">
      <!-- 0 -->
      <g transform="translate(57.4 18.882941)scale(0.1 -0.1)">
       <defs>
        <path id="DejaVuSans-30" d="M 2034 4250 
Q 1547 4250 1301 3770 
Q 1056 3291 1056 2328 
Q 1056 1369 1301 889 
Q 1547 409 2034 409 
Q 2525 409 2770 889 
Q 3016 1369 3016 2328 
Q 3016 3291 2770 3770 
Q 2525 4250 2034 4250 
z
M 2034 4750 
Q 2819 4750 3233 4129 
Q 3647 3509 3647 2328 
Q 3647 1150 3233 529 
Q 2819 -91 2034 -91 
Q 1250 -91 836 529 
Q 422 1150 422 2328 
Q 422 3509 836 4129 
Q 1250 4750 2034 4750 
z
" transform="scale(0.015625)"/>
       </defs>
       <use xlink:href="#DejaVuSans-30"/>
      </g>
     </g>
    </g>
   </g>
   <g id="LineCollection_2"/>
   <g id="patch_6">
    <path d="M 14.4 144 
L 32.4 144 
L 50.4 144 
L 50.4 14.4 
L 32.4 14.4 
L 14.4 14.4 
L 14.4 144 
z
" style="fill: none"/>
   </g>
  </g>
  <g id="text_17">
   <!-- Ranking of reactions in best scored strain design strategy -->
   <g transform="translate(122.33875 26.5575)scale(0.16 -0.16)">
    <defs>
     <path id="DejaVuSans-Bold-52" d="M 2297 2597 
Q 2675 2597 2839 2737 
Q 3003 2878 3003 3200 
Q 3003 3519 2839 3656 
Q 2675 3794 2297 3794 
L 1791 3794 
L 1791 2597 
L 2297 2597 
z
M 1791 1766 
L 1791 0 
L 588 0 
L 588 4666 
L 2425 4666 
Q 3347 4666 3776 4356 
Q 4206 4047 4206 3378 
Q 4206 2916 3982 2619 
Q 3759 2322 3309 2181 
Q 3556 2125 3751 1926 
Q 3947 1728 4147 1325 
L 4800 0 
L 3519 0 
L 2950 1159 
Q 2778 1509 2601 1637 
Q 2425 1766 2131 1766 
L 1791 1766 
z
" transform="scale(0.015625)"/>
     <path id="DejaVuSans-Bold-61" d="M 2106 1575 
Q 1756 1575 1579 1456 
Q 1403 1338 1403 1106 
Q 1403 894 1545 773 
Q 1688 653 1941 653 
Q 2256 653 2472 879 
Q 2688 1106 2688 1447 
L 2688 1575 
L 2106 1575 
z
M 3816 1997 
L 3816 0 
L 2688 0 
L 2688 519 
Q 2463 200 2181 54 
Q 1900 -91 1497 -91 
Q 953 -91 614 226 
Q 275 544 275 1050 
Q 275 1666 698 1953 
Q 1122 2241 2028 2241 
L 2688 2241 
L 2688 2328 
Q 2688 2594 2478 2717 
Q 2269 2841 1825 2841 
Q 1466 2841 1156 2769 
Q 847 2697 581 2553 
L 581 3406 
Q 941 3494 1303 3539 
Q 1666 3584 2028 3584 
Q 2975 3584 3395 3211 
Q 3816 2838 3816 1997 
z
" transform="scale(0.015625)"/>
     <path id="DejaVuSans-Bold-6e" d="M 4056 2131 
L 4056 0 
L 2931 0 
L 2931 347 
L 2931 1631 
Q 2931 2084 2911 2256 
Q 2891 2428 2841 2509 
Q 2775 2619 2662 2680 
Q 2550 2741 2406 2741 
Q 2056 2741 1856 2470 
Q 1656 2200 1656 1722 
L 1656 0 
L 538 0 
L 538 3500 
L 1656 3500 
L 1656 2988 
Q 1909 3294 2193 3439 
Q 2478 3584 2822 3584 
Q 3428 3584 3742 3212 
Q 4056 2841 4056 2131 
z
" transform="scale(0.015625)"/>
     <path id="DejaVuSans-Bold-6b" d="M 538 4863 
L 1656 4863 
L 1656 2216 
L 2944 3500 
L 4244 3500 
L 2534 1894 
L 4378 0 
L 3022 0 
L 1656 1459 
L 1656 0 
L 538 0 
L 538 4863 
z
" transform="scale(0.015625)"/>
     <path id="DejaVuSans-Bold-69" d="M 538 3500 
L 1656 3500 
L 1656 0 
L 538 0 
L 538 3500 
z
M 538 4863 
L 1656 4863 
L 1656 3950 
L 538 3950 
L 538 4863 
z
" transform="scale(0.015625)"/>
     <path id="DejaVuSans-Bold-67" d="M 2919 594 
Q 2688 288 2409 144 
Q 2131 0 1766 0 
Q 1125 0 706 504 
Q 288 1009 288 1791 
Q 288 2575 706 3076 
Q 1125 3578 1766 3578 
Q 2131 3578 2409 3434 
Q 2688 3291 2919 2981 
L 2919 3500 
L 4044 3500 
L 4044 353 
Q 4044 -491 3511 -936 
Q 2978 -1381 1966 -1381 
Q 1638 -1381 1331 -1331 
Q 1025 -1281 716 -1178 
L 716 -306 
Q 1009 -475 1290 -558 
Q 1572 -641 1856 -641 
Q 2406 -641 2662 -400 
Q 2919 -159 2919 353 
L 2919 594 
z
M 2181 2772 
Q 1834 2772 1640 2515 
Q 1447 2259 1447 1791 
Q 1447 1309 1634 1061 
Q 1822 813 2181 813 
Q 2531 813 2725 1069 
Q 2919 1325 2919 1791 
Q 2919 2259 2725 2515 
Q 2531 2772 2181 2772 
z
" transform="scale(0.015625)"/>
     <path id="DejaVuSans-Bold-20" transform="scale(0.015625)"/>
     <path id="DejaVuSans-Bold-6f" d="M 2203 2784 
Q 1831 2784 1636 2517 
Q 1441 2250 1441 1747 
Q 1441 1244 1636 976 
Q 1831 709 2203 709 
Q 2569 709 2762 976 
Q 2956 1244 2956 1747 
Q 2956 2250 2762 2517 
Q 2569 2784 2203 2784 
z
M 2203 3584 
Q 3106 3584 3614 3096 
Q 4122 2609 4122 1747 
Q 4122 884 3614 396 
Q 3106 -91 2203 -91 
Q 1297 -91 786 396 
Q 275 884 275 1747 
Q 275 2609 786 3096 
Q 1297 3584 2203 3584 
z
" transform="scale(0.015625)"/>
     <path id="DejaVuSans-Bold-66" d="M 2841 4863 
L 2841 4128 
L 2222 4128 
Q 1984 4128 1890 4042 
Q 1797 3956 1797 3744 
L 1797 3500 
L 2753 3500 
L 2753 2700 
L 1797 2700 
L 1797 0 
L 678 0 
L 678 2700 
L 122 2700 
L 122 3500 
L 678 3500 
L 678 3744 
Q 678 4316 997 4589 
Q 1316 4863 1984 4863 
L 2841 4863 
z
" transform="scale(0.015625)"/>
     <path id="DejaVuSans-Bold-72" d="M 3138 2547 
Q 2991 2616 2845 2648 
Q 2700 2681 2553 2681 
Q 2122 2681 1889 2404 
Q 1656 2128 1656 1613 
L 1656 0 
L 538 0 
L 538 3500 
L 1656 3500 
L 1656 2925 
Q 1872 3269 2151 3426 
Q 2431 3584 2822 3584 
Q 2878 3584 2943 3579 
Q 3009 3575 3134 3559 
L 3138 2547 
z
" transform="scale(0.015625)"/>
     <path id="DejaVuSans-Bold-65" d="M 4031 1759 
L 4031 1441 
L 1416 1441 
Q 1456 1047 1700 850 
Q 1944 653 2381 653 
Q 2734 653 3104 758 
Q 3475 863 3866 1075 
L 3866 213 
Q 3469 63 3072 -14 
Q 2675 -91 2278 -91 
Q 1328 -91 801 392 
Q 275 875 275 1747 
Q 275 2603 792 3093 
Q 1309 3584 2216 3584 
Q 3041 3584 3536 3087 
Q 4031 2591 4031 1759 
z
M 2881 2131 
Q 2881 2450 2695 2645 
Q 2509 2841 2209 2841 
Q 1884 2841 1681 2658 
Q 1478 2475 1428 2131 
L 2881 2131 
z
" transform="scale(0.015625)"/>
     <path id="DejaVuSans-Bold-63" d="M 3366 3391 
L 3366 2478 
Q 3138 2634 2908 2709 
Q 2678 2784 2431 2784 
Q 1963 2784 1702 2511 
Q 1441 2238 1441 1747 
Q 1441 1256 1702 982 
Q 1963 709 2431 709 
Q 2694 709 2930 787 
Q 3166 866 3366 1019 
L 3366 103 
Q 3103 6 2833 -42 
Q 2563 -91 2291 -91 
Q 1344 -91 809 395 
Q 275 881 275 1747 
Q 275 2613 809 3098 
Q 1344 3584 2291 3584 
Q 2566 3584 2833 3536 
Q 3100 3488 3366 3391 
z
" transform="scale(0.015625)"/>
     <path id="DejaVuSans-Bold-74" d="M 1759 4494 
L 1759 3500 
L 2913 3500 
L 2913 2700 
L 1759 2700 
L 1759 1216 
Q 1759 972 1856 886 
Q 1953 800 2241 800 
L 2816 800 
L 2816 0 
L 1856 0 
Q 1194 0 917 276 
Q 641 553 641 1216 
L 641 2700 
L 84 2700 
L 84 3500 
L 641 3500 
L 641 4494 
L 1759 4494 
z
" transform="scale(0.015625)"/>
     <path id="DejaVuSans-Bold-73" d="M 3272 3391 
L 3272 2541 
Q 2913 2691 2578 2766 
Q 2244 2841 1947 2841 
Q 1628 2841 1473 2761 
Q 1319 2681 1319 2516 
Q 1319 2381 1436 2309 
Q 1553 2238 1856 2203 
L 2053 2175 
Q 2913 2066 3209 1816 
Q 3506 1566 3506 1031 
Q 3506 472 3093 190 
Q 2681 -91 1863 -91 
Q 1516 -91 1145 -36 
Q 775 19 384 128 
L 384 978 
Q 719 816 1070 734 
Q 1422 653 1784 653 
Q 2113 653 2278 743 
Q 2444 834 2444 1013 
Q 2444 1163 2330 1236 
Q 2216 1309 1875 1350 
L 1678 1375 
Q 931 1469 631 1722 
Q 331 1975 331 2491 
Q 331 3047 712 3315 
Q 1094 3584 1881 3584 
Q 2191 3584 2531 3537 
Q 2872 3491 3272 3391 
z
" transform="scale(0.015625)"/>
     <path id="DejaVuSans-Bold-62" d="M 2400 722 
Q 2759 722 2948 984 
Q 3138 1247 3138 1747 
Q 3138 2247 2948 2509 
Q 2759 2772 2400 2772 
Q 2041 2772 1848 2508 
Q 1656 2244 1656 1747 
Q 1656 1250 1848 986 
Q 2041 722 2400 722 
z
M 1656 2988 
Q 1888 3294 2169 3439 
Q 2450 3584 2816 3584 
Q 3463 3584 3878 3070 
Q 4294 2556 4294 1747 
Q 4294 938 3878 423 
Q 3463 -91 2816 -91 
Q 2450 -91 2169 54 
Q 1888 200 1656 506 
L 1656 0 
L 538 0 
L 538 4863 
L 1656 4863 
L 1656 2988 
z
" transform="scale(0.015625)"/>
     <path id="DejaVuSans-Bold-64" d="M 2919 2988 
L 2919 4863 
L 4044 4863 
L 4044 0 
L 2919 0 
L 2919 506 
Q 2688 197 2409 53 
Q 2131 -91 1766 -91 
Q 1119 -91 703 423 
Q 288 938 288 1747 
Q 288 2556 703 3070 
Q 1119 3584 1766 3584 
Q 2128 3584 2408 3439 
Q 2688 3294 2919 2988 
z
M 2181 722 
Q 2541 722 2730 984 
Q 2919 1247 2919 1747 
Q 2919 2247 2730 2509 
Q 2541 2772 2181 2772 
Q 1825 2772 1636 2509 
Q 1447 2247 1447 1747 
Q 1447 1247 1636 984 
Q 1825 722 2181 722 
z
" transform="scale(0.015625)"/>
     <path id="DejaVuSans-Bold-79" d="M 78 3500 
L 1197 3500 
L 2138 1125 
L 2938 3500 
L 4056 3500 
L 2584 -331 
Q 2363 -916 2067 -1148 
Q 1772 -1381 1288 -1381 
L 641 -1381 
L 641 -647 
L 991 -647 
Q 1275 -647 1404 -556 
Q 1534 -466 1606 -231 
L 1638 -134 
L 78 3500 
z
" transform="scale(0.015625)"/>
    </defs>
    <use xlink:href="#DejaVuSans-Bold-52"/>
    <use xlink:href="#DejaVuSans-Bold-61" x="77.001953"/>
    <use xlink:href="#DejaVuSans-Bold-6e" x="144.482422"/>
    <use xlink:href="#DejaVuSans-Bold-6b" x="215.673828"/>
    <use xlink:href="#DejaVuSans-Bold-69" x="282.177734"/>
    <use xlink:href="#DejaVuSans-Bold-6e" x="316.455078"/>
    <use xlink:href="#DejaVuSans-Bold-67" x="387.646484"/>
    <use xlink:href="#DejaVuSans-Bold-20" x="459.228516"/>
    <use xlink:href="#DejaVuSans-Bold-6f" x="494.042969"/>
    <use xlink:href="#DejaVuSans-Bold-66" x="562.744141"/>
    <use xlink:href="#DejaVuSans-Bold-20" x="606.25"/>
    <use xlink:href="#DejaVuSans-Bold-72" x="641.064453"/>
    <use xlink:href="#DejaVuSans-Bold-65" x="690.380859"/>
    <use xlink:href="#DejaVuSans-Bold-61" x="758.203125"/>
    <use xlink:href="#DejaVuSans-Bold-63" x="825.683594"/>
    <use xlink:href="#DejaVuSans-Bold-74" x="884.960938"/>
    <use xlink:href="#DejaVuSans-Bold-69" x="932.763672"/>
    <use xlink:href="#DejaVuSans-Bold-6f" x="967.041016"/>
    <use xlink:href="#DejaVuSans-Bold-6e" x="1035.742188"/>
    <use xlink:href="#DejaVuSans-Bold-73" x="1106.933594"/>
    <use xlink:href="#DejaVuSans-Bold-20" x="1166.455078"/>
    <use xlink:href="#DejaVuSans-Bold-69" x="1201.269531"/>
    <use xlink:href="#DejaVuSans-Bold-6e" x="1235.546875"/>
    <use xlink:href="#DejaVuSans-Bold-20" x="1306.738281"/>
    <use xlink:href="#DejaVuSans-Bold-62" x="1341.552734"/>
    <use xlink:href="#DejaVuSans-Bold-65" x="1413.134766"/>
    <use xlink:href="#DejaVuSans-Bold-73" x="1480.957031"/>
    <use xlink:href="#DejaVuSans-Bold-74" x="1540.478516"/>
    <use xlink:href="#DejaVuSans-Bold-20" x="1588.28125"/>
    <use xlink:href="#DejaVuSans-Bold-73" x="1623.095703"/>
    <use xlink:href="#DejaVuSans-Bold-63" x="1682.617188"/>
    <use xlink:href="#DejaVuSans-Bold-6f" x="1741.894531"/>
    <use xlink:href="#DejaVuSans-Bold-72" x="1810.595703"/>
    <use xlink:href="#DejaVuSans-Bold-65" x="1859.912109"/>
    <use xlink:href="#DejaVuSans-Bold-64" x="1927.734375"/>
    <use xlink:href="#DejaVuSans-Bold-20" x="1999.316406"/>
    <use xlink:href="#DejaVuSans-Bold-73" x="2034.130859"/>
    <use xlink:href="#DejaVuSans-Bold-74" x="2093.652344"/>
    <use xlink:href="#DejaVuSans-Bold-72" x="2141.455078"/>
    <use xlink:href="#DejaVuSans-Bold-61" x="2190.771484"/>
    <use xlink:href="#DejaVuSans-Bold-69" x="2258.251953"/>
    <use xlink:href="#DejaVuSans-Bold-6e" x="2292.529297"/>
    <use xlink:href="#DejaVuSans-Bold-20" x="2363.720703"/>
    <use xlink:href="#DejaVuSans-Bold-64" x="2398.535156"/>
    <use xlink:href="#DejaVuSans-Bold-65" x="2470.117188"/>
    <use xlink:href="#DejaVuSans-Bold-73" x="2537.939453"/>
    <use xlink:href="#DejaVuSans-Bold-69" x="2597.460938"/>
    <use xlink:href="#DejaVuSans-Bold-67" x="2631.738281"/>
    <use xlink:href="#DejaVuSans-Bold-6e" x="2703.320312"/>
    <use xlink:href="#DejaVuSans-Bold-20" x="2774.511719"/>
    <use xlink:href="#DejaVuSans-Bold-73" x="2809.326172"/>
    <use xlink:href="#DejaVuSans-Bold-74" x="2868.847656"/>
    <use xlink:href="#DejaVuSans-Bold-72" x="2916.650391"/>
    <use xlink:href="#DejaVuSans-Bold-61" x="2965.966797"/>
    <use xlink:href="#DejaVuSans-Bold-74" x="3033.447266"/>
    <use xlink:href="#DejaVuSans-Bold-65" x="3081.25"/>
    <use xlink:href="#DejaVuSans-Bold-67" x="3149.072266"/>
    <use xlink:href="#DejaVuSans-Bold-79" x="3220.654297"/>
   </g>
  </g>
 </g>
 <defs>
  <clipPath id="p8e6e508c8d">
   <rect x="10.8" y="131.165" width="133.21875" height="480.66"/>
  </clipPath>
  <clipPath id="p00b51898ce">
   <rect x="144.21875" y="131.165" width="19.982812" height="480.66"/>
  </clipPath>
  <clipPath id="p06e18d0412">
   <rect x="164.401562" y="131.165" width="512.892187" height="480.66"/>
  </clipPath>
  <clipPath id="p848700eb06">
   <rect x="14.4" y="14.4" width="36" height="129.6"/>
  </clipPath>
 </defs>
</svg>
